<?xml version="1.0" encoding="utf-8"?>
<!-- Generator: Adobe Illustrator 15.0.0, SVG Export Plug-In . SVG Version: 6.00 Build 0)  -->
<!DOCTYPE svg PUBLIC "-//W3C//DTD SVG 1.1//EN" "http://www.w3.org/Graphics/SVG/1.1/DTD/svg11.dtd">
<svg version="1.1" id="Layer_1" xmlns="http://www.w3.org/2000/svg" xmlns:xlink="http://www.w3.org/1999/xlink" x="0px" y="0px"
	 width="100px" height="100px" viewBox="0 0 100 100" enable-background="new 0 0 100 100" xml:space="preserve">
<rect y="-0.465" fill="#B2B3B3" width="100" height="100.465"/>
<path fill="#FFFFFF" d="M50.2,4.578c0.011,0.046-0.243,0.829-0.559,1.742c-4.875,14.01-6.68,24.773-6.835,40.776
	c-0.03,2.788-0.013,4.209,0.054,6.175c0.029,0.8,0.018,1.056-0.048,1.077c-0.346,0.119-1.308,0.661-1.762,0.988
	c-2.268,1.641-3.792,4.644-4.44,8.745c-0.497,3.127-0.454,7.078,0.116,10.759c0.122,0.77,0.47,2.628,0.49,2.61
	c0.004-0.005,0.119-0.229,0.249-0.503c1.253-2.602,2.047-3.793,3.165-4.761c0.799-0.688,1.641-1.129,2.717-1.422
	c0.447-0.117,1.722-0.3,2.176-0.304l0.201-0.004l0.255,0.584c0.347,0.801,0.601,1.302,0.982,1.933
	c0.516,0.853,0.417,0.797,1.4,0.802c0.473,0.004,0.878-0.009,0.909-0.029c0.028-0.016,0.029-0.553-0.003-1.194
	c-0.213-4.474-0.247-13.204-0.057-15.332c0.121-1.336,0.343-2.001,0.698-2.095c0.559-0.149,0.921,0.631,1.03,2.19
	c0.061,0.865,0.065,1.523,0.045,3.563c-0.009,0.806-0.014,1.992-0.005,2.646c0.027,2.676-0.041,5.615-0.192,8.572
	c-0.048,0.9-0.065,1.655-0.04,1.669c0.025,0.013,0.414,0.031,0.858,0.034c0.941,0.008,0.84,0.069,1.375-0.81
	c0.384-0.617,0.818-1.457,1.048-2.014c0.198-0.489,0.211-0.492,1.036-0.399c1.642,0.188,2.882,0.65,3.969,1.481
	c0.357,0.277,0.575,0.485,1.03,1.018c0.793,0.922,1.224,1.632,2.187,3.614c0.236,0.506,0.449,0.924,0.455,0.924
	c0.031,0.003,0.349-1.58,0.484-2.407c0.417-2.503,0.608-5.389,0.526-7.704c-0.181-5.025-1.452-8.877-3.687-11.161
	c-0.77-0.789-1.495-1.307-2.453-1.751l-0.402-0.188l0.046-0.822c0.179-3.153,0.157-9.698-0.043-14.273
	c-0.521-11.693-2.422-21.598-6.357-33.106c-0.28-0.823-0.51-1.548-0.514-1.617c0.002-0.07-0.018-0.11-0.061-0.102
	C50.211,4.484,50.192,4.529,50.2,4.578z M49.17,24.835c1.115-0.419,2.332-0.113,3.107,0.785c0.524,0.612,0.715,1.174,0.685,1.996
	c-0.037,0.799-0.36,1.459-0.985,1.981c-1.764,1.498-4.478,0.304-4.603-2.028c-0.034-0.619,0.225-1.405,0.638-1.929
	C48.211,25.393,48.813,24.974,49.17,24.835z"/>
<path fill="#F0BF46" d="M52.048,26.891c-0.093,0.686-0.376,1.254-0.881,1.751c-0.505,0.507-1.116,0.792-1.852,0.875l-0.411,0.045
	l0.188,0.097c0.58,0.291,1.128,0.347,1.722,0.181c0.348-0.094,0.416-0.138,0.807-0.468c0.406-0.35,0.432-0.377,0.602-0.778
	c0.255-0.608,0.25-1.299-0.028-1.885c-0.048-0.102-0.089-0.183-0.094-0.181C52.101,26.536,52.077,26.698,52.048,26.891z"/>
<path fill="#F0BF46" d="M47.786,77.317c-0.459,2.15-0.771,5.787-0.713,8.188c0.086,3.111,0.785,6.152,1.887,8.149
	c0.233,0.419,0.915,1.39,0.986,1.397c0.074,0.015,0.59-0.676,0.907-1.195c1.16-1.942,1.934-4.968,2.06-8.095
	c0.105-2.57-0.188-6.42-0.654-8.497c-0.071-0.327-0.142-0.596-0.154-0.593c-0.011-0.005-0.005,0.843,0.019,1.873
	c0.036,1.969-0.041,3.601-0.242,4.941c-0.234,1.57-0.625,3.027-1.046,3.91c-0.231,0.481-0.71,1.174-0.808,1.166
	c-0.077-0.009-0.578-0.623-0.721-0.887c-0.834-1.531-1.422-4.44-1.426-7.009c0-0.311-0.006-0.848-0.012-1.189
	c-0.008-0.346,0.02-1.136,0.058-1.761c0.042-0.621,0.056-1.12,0.036-1.103C47.945,76.637,47.866,76.953,47.786,77.317z"/>
<path fill="#F0BF46" d="M48.756,77.287c-0.182,0.986-0.342,2.963-0.319,4.002c0.032,2.045,0.579,4.073,1.362,5.091l0.21,0.276
	l0.11-0.115c0.189-0.213,0.574-0.868,0.748-1.293c0.686-1.661,0.893-3.679,0.666-6.447c-0.065-0.756-0.275-2.118-0.332-2.127
	c-0.016,0-0.018,0.501-0.006,1.12c0.023,1.677-0.15,3.083-0.527,4.187c-0.178,0.52-0.314,0.801-0.498,0.986l-0.127,0.138
	l-0.223-0.271c-0.686-0.855-1.076-3.212-0.919-5.567c0.026-0.359,0.027-0.637,0.007-0.62C48.885,76.668,48.818,76.957,48.756,77.287
	z"/>
</svg>
