<svg width="73" height="238" viewBox="0 0 73 238" fill="none" xmlns="http://www.w3.org/2000/svg">
<path d="M36.7214 0.592361C36.7522 0.713838 36.0858 2.7674 35.2551 5.16578C22.4579 41.9495 17.7187 70.207 17.3119 112.218C17.2324 119.538 17.2764 123.274 17.4546 128.43C17.5291 130.53 17.4996 131.203 17.3268 131.26C16.4202 131.577 13.895 132.992 12.7004 133.854C6.74755 138.163 2.74615 146.047 1.04436 156.817C-0.261476 165.026 -0.147712 175.399 1.34784 185.063C1.6664 187.083 2.57979 191.958 2.63275 191.912C2.64334 191.903 2.94477 191.311 3.28521 190.592C6.57399 183.766 8.65888 180.639 11.5944 178.094C13.6917 176.289 15.9007 175.128 18.7258 174.362C19.8996 174.054 23.2495 173.576 24.4411 173.568L24.9678 173.559L25.6398 175.089C26.5476 177.194 27.2157 178.506 28.216 180.161C29.5706 182.399 29.3136 182.25 31.8926 182.269C33.1328 182.275 34.1968 182.247 34.2801 182.194C34.3528 182.15 34.3568 180.74 34.2717 179.056C33.7127 167.309 33.6245 144.39 34.1232 138.799C34.4398 135.29 35.0239 133.547 35.9551 133.301C37.423 132.907 38.3746 134.955 38.6598 139.057C38.8214 141.323 38.8338 143.052 38.779 148.408C38.7533 150.521 38.7434 153.637 38.7664 155.356C38.8376 162.38 38.6593 170.1 38.2596 177.862C38.1361 180.225 38.0902 182.207 38.1572 182.242C38.2241 182.277 39.2428 182.325 40.4132 182.336C42.883 182.356 42.6133 182.514 44.0227 180.209C45.0247 178.589 46.1688 176.383 46.7722 174.92C47.2927 173.64 47.323 173.632 49.4885 173.877C53.7998 174.366 57.0557 175.578 59.9129 177.763C60.8521 178.49 61.4173 179.039 62.6155 180.431C64.7009 182.855 65.8249 184.718 68.3516 189.924C68.9788 191.253 69.5338 192.348 69.5536 192.349C69.6325 192.355 70.4628 188.2 70.8207 186.023C71.917 179.456 72.4222 171.88 72.2026 165.798C71.7294 152.608 68.391 142.495 62.528 136.497C60.5061 134.426 58.6006 133.069 56.0857 131.904L55.0304 131.406L55.1485 129.251C55.6162 120.967 55.5641 103.789 55.0345 91.7764C53.6701 61.0762 48.6767 35.0716 38.3445 4.85627C37.6095 2.69543 37.0045 0.792714 36.9978 0.613511C37.0016 0.425189 36.9496 0.321938 36.8389 0.343237C36.7494 0.346313 36.7012 0.461756 36.7214 0.592361ZM34.0178 53.7742C36.9465 52.6781 40.1432 53.4787 42.1737 55.838C43.5548 57.4428 44.052 58.9203 43.9734 61.0784C43.8794 63.1758 43.028 64.9075 41.3891 66.281C36.7539 70.2148 29.6293 67.0784 29.3034 60.9581C29.214 59.3331 29.8911 57.2704 30.9744 55.894C31.4988 55.2393 33.078 54.1391 34.0178 53.7742Z" fill="white"/>
<path d="M41.1522 58.4006C40.9113 60.1989 40.1669 61.6905 38.8404 62.9987C37.5125 64.3265 35.9092 65.0774 33.9777 65.2968L32.8973 65.4127L33.3946 65.6692C34.9169 66.431 36.3549 66.5807 37.9153 66.1443C38.8267 65.8964 39.0039 65.7809 40.0299 64.9163C41.0997 63.9956 41.1647 63.9211 41.6087 62.873C42.2814 61.2766 42.2657 59.4587 41.5345 57.9236C41.4151 57.6563 41.302 57.4392 41.2914 57.4483C41.2899 57.4681 41.2292 57.8903 41.1522 58.4006Z" fill="#F0C045"/>
<path d="M30.3783 190.75C29.1709 196.396 28.3526 205.943 28.5062 212.248C28.7318 220.416 30.5689 228.399 33.46 233.644C34.0742 234.743 35.8626 237.292 36.0494 237.316C36.2453 237.351 37.5988 235.539 38.4332 234.173C41.4763 229.075 43.5072 221.13 43.84 212.926C44.116 206.176 43.3474 196.071 42.1192 190.616C41.9339 189.758 41.7477 189.049 41.7173 189.057C41.6884 189.045 41.7042 191.27 41.7641 193.975C41.8619 199.144 41.6575 203.427 41.1314 206.951C40.512 211.073 39.4877 214.896 38.385 217.214C37.7763 218.477 36.5216 220.297 36.2649 220.278C36.0584 220.252 34.7471 218.643 34.3711 217.949C32.1843 213.93 30.6399 206.287 30.6275 199.545C30.6275 198.731 30.6117 197.32 30.5979 196.426C30.5748 195.52 30.6477 193.441 30.7479 191.801C30.8574 190.171 30.8936 188.864 30.8406 188.909C30.7968 188.965 30.5873 189.793 30.3783 190.75Z" fill="#F0C045"/>
<path d="M32.9252 190.667C32.4474 193.261 32.0276 198.451 32.0861 201.175C32.1695 206.543 33.6052 211.874 35.6627 214.543L36.2148 215.271L36.5052 214.965C37.0025 214.408 38.0118 212.688 38.4707 211.572C40.2687 207.212 40.8156 201.913 40.2168 194.64C40.0441 192.661 39.4921 189.085 39.3448 189.064C39.3053 189.061 39.298 190.381 39.3282 192.001C39.3929 196.404 38.9342 200.091 37.9475 202.994C37.4804 204.358 37.1188 205.095 36.6364 205.584L36.3022 205.946L35.7197 205.226C33.9188 202.983 32.8929 196.8 33.306 190.617C33.3754 189.669 33.3788 188.945 33.3258 188.99C33.2623 189.045 33.0875 189.806 32.9252 190.667Z" fill="#F0C045"/>
</svg>
