<svg width="103" height="102" viewBox="0 0 103 102" fill="none" xmlns="http://www.w3.org/2000/svg">
<path d="M102.376 51.6642C102.324 51.6773 101.438 51.386 100.403 51.0232C84.5322 45.4343 72.3321 43.3407 54.1831 43.0962C51.0207 43.0498 49.4066 43.0627 47.1788 43.1313C46.2713 43.16 45.9806 43.1462 45.9566 43.0714C45.8208 42.6792 45.2137 41.586 44.8434 41.0685C42.9914 38.4896 39.592 36.748 34.9419 35.9952C31.3975 35.4176 26.9161 35.4498 22.7383 36.0801C21.8652 36.2144 19.7577 36.601 19.7773 36.624C19.7812 36.6286 20.0367 36.7598 20.3465 36.908C23.2903 38.34 24.6375 39.2459 25.7322 40.5183C26.5086 41.4273 27.0067 42.3835 27.3332 43.6053C27.464 44.1129 27.6651 45.5609 27.6666 46.0757L27.6698 46.3033L27.0075 46.5911C26.0967 46.9798 25.5289 47.2663 24.8122 47.6958C23.8431 48.2773 23.9078 48.1665 23.8955 49.2807C23.891 49.8165 23.9013 50.2762 23.9241 50.3123C23.943 50.3438 24.5519 50.3478 25.2797 50.3138C30.3556 50.0915 40.2572 50.0909 42.6717 50.3155C44.1875 50.4581 44.9392 50.7133 45.0442 51.1159C45.2119 51.7508 44.3254 52.1585 42.5528 52.275C41.5737 52.3411 40.827 52.3437 38.5129 52.3112C37.6003 52.2966 36.2539 52.2873 35.5112 52.2944C32.4765 52.3136 29.1417 52.224 25.7889 52.0386C24.7681 51.9814 23.912 51.9583 23.8968 51.9872C23.8816 52.016 23.8591 52.4561 23.8528 52.9617C23.84 54.0287 23.7721 53.9119 24.7654 54.5246C25.464 54.9601 26.415 55.458 27.046 55.7211C27.5983 55.948 27.6016 55.9612 27.4921 56.8963C27.2738 58.7581 26.7448 60.1627 25.7965 61.3935C25.4808 61.7981 25.2425 62.0414 24.639 62.5567C23.5888 63.4537 22.7821 63.9363 20.5285 65.0193C19.9535 65.2881 19.4796 65.5261 19.479 65.5346C19.4762 65.5687 21.2701 65.9343 22.2098 66.0924C25.0453 66.5768 28.3173 66.8074 30.9454 66.7225C36.6445 66.5397 41.0191 65.114 43.6201 62.5908C44.518 61.7207 45.1074 60.8997 45.6149 59.8151L45.8317 59.36L46.7626 59.4146C50.3404 59.6302 57.7618 59.6358 62.9525 59.4267C76.218 58.8875 87.4607 56.7728 100.531 52.3585C101.466 52.0445 102.289 51.7862 102.367 51.7836C102.448 51.7856 102.493 51.7633 102.484 51.7154C102.482 51.6767 102.433 51.6557 102.376 51.6642ZM79.4047 50.4091C79.8735 51.6762 79.5224 53.0559 78.4998 53.9293C77.8042 54.5234 77.1651 54.7358 76.2329 54.6983C75.3269 54.6542 74.5802 54.2836 73.9895 53.5733C72.2976 51.5643 73.6642 48.4915 76.3089 48.3607C77.0111 48.3247 77.9011 48.6206 78.4939 49.0909C78.7759 49.3185 79.2487 50.0025 79.4047 50.4091Z" fill="black" fill-opacity="0.31"/>
<path d="M77.3944 53.4839C76.6179 53.3769 75.9747 53.0529 75.4117 52.4776C74.8402 51.9018 74.5185 51.2079 74.4268 50.3731L74.3785 49.9061L74.2669 50.1206C73.9353 50.777 73.8683 51.398 74.0543 52.0728C74.1599 52.467 74.2095 52.5437 74.5813 52.9884C74.9773 53.4521 75.0094 53.4803 75.4615 53.6738C76.1501 53.9671 76.9355 53.9632 77.5999 53.6499C77.7155 53.5987 77.8095 53.5502 77.8056 53.5456C77.7971 53.545 77.6148 53.518 77.3944 53.4839Z" fill="black" fill-opacity="0.31"/>
<path d="M20.2339 48.6127C17.7969 48.0818 13.6737 47.7127 10.9493 47.7687C7.42031 47.8528 3.96839 48.6334 1.6979 49.8738C1.22197 50.1374 0.117719 50.9058 0.106947 50.9865C0.0915687 51.0711 0.872333 51.6588 1.46096 52.0215C3.65843 53.3445 7.08762 54.2349 10.6315 54.3922C13.5469 54.5224 17.9138 54.2069 20.2724 53.6852C20.6434 53.6066 20.9501 53.5273 20.9469 53.5142C20.9521 53.5017 19.9909 53.5048 18.8223 53.5263C16.5887 53.5601 14.7387 53.4648 13.2173 53.2318C11.4375 52.9574 9.78755 52.5086 8.78793 52.0284C8.24293 51.7634 7.45874 51.2183 7.46765 51.1075C7.4791 51.0183 8.17652 50.4544 8.47692 50.2931C10.2169 49.3549 13.5214 48.7003 16.4339 48.7059C16.7856 48.7073 17.3952 48.7028 17.7817 48.6982C18.1727 48.6898 19.0709 48.7246 19.7793 48.7706C20.4832 48.8206 21.048 48.8384 21.0284 48.8154C21.0042 48.7964 20.6469 48.7045 20.2339 48.6127Z" fill="black" fill-opacity="0.31"/>
<path d="M20.2656 49.7131C19.1456 49.5024 16.9043 49.3126 15.7271 49.3334C13.4083 49.3606 11.1025 49.9722 9.94604 50.8567L9.63095 51.094L9.7624 51.22C10.0025 51.4357 10.7437 51.8746 11.2253 52.0747C13.1057 52.8586 15.3941 53.1035 18.5372 52.8567C19.3923 52.7853 20.9383 52.5528 20.9477 52.4891C20.9491 52.4721 20.3789 52.4668 19.6788 52.4772C17.7766 52.4979 16.1842 52.2937 14.9318 51.8627C14.3433 51.6587 14.0256 51.5012 13.8151 51.292L13.6594 51.147L13.9713 50.8966C14.943 50.1222 17.6162 49.6891 20.2867 49.8777C20.696 49.9092 21.009 49.9119 20.9894 49.8889C20.9658 49.8614 20.6374 49.7846 20.2656 49.7131Z" fill="black" fill-opacity="0.31"/>
</svg>
