<svg width="35" height="35" viewBox="0 0 35 35" fill="none" xmlns="http://www.w3.org/2000/svg">
<path d="M29.5555 17.111C27.8055 15.2638 25.4722 13.9999 23.0417 13.5138C21.9722 13.2221 20.9028 13.0277 19.8333 12.9305C22.5555 9.72212 22.0694 4.86101 18.8611 2.13879C15.6528 -0.583436 10.7917 -0.097325 8.06944 3.11101C5.34721 6.31934 5.83333 11.1805 9.04166 13.9027C9.62499 14.3888 10.2083 14.7777 10.7917 14.9721V17.111L9.2361 15.6527C7.87499 14.2916 5.63888 14.2916 4.18055 15.6527C2.81944 17.0138 2.72221 19.1527 4.08333 20.5138L8.55555 25.7638C8.74999 27.1249 9.2361 28.3888 9.91666 29.5555C10.4028 30.4305 11.0833 31.3055 11.7639 31.986V33.8332C11.7639 34.4166 12.1528 34.8055 12.7361 34.8055H25.9583C26.4444 34.8055 26.9305 34.3193 26.9305 33.8332V31.3055C28.7778 29.0693 29.75 26.2499 29.75 23.4305V17.7916C29.8472 17.4027 29.75 17.2082 29.5555 17.111ZM8.16666 7.97212C8.16666 4.76379 10.7917 2.23601 14 2.33323C17.2083 2.33323 19.7361 4.95823 19.6389 8.16656C19.6389 9.91656 18.8611 11.4721 17.5 12.5416V7.68045C17.4503 6.8379 17.0803 6.04625 16.4657 5.46779C15.8511 4.88933 15.0385 4.56788 14.1944 4.56934C12.4444 4.47212 10.8889 5.93045 10.8889 7.68045V12.736C9.2361 11.7638 8.26388 9.91656 8.16666 7.97212ZM27.9028 23.3332C28 25.861 27.125 28.2916 25.4722 30.236C25.2778 30.4305 25.0833 30.6249 25.0833 30.9166V32.9582H13.8055V31.5971C13.8055 31.3055 13.6111 31.0138 13.4167 30.8193C12.7361 30.236 12.1528 29.5555 11.6667 28.6805C11.0833 27.7082 10.6944 26.5416 10.5 25.3749C10.5 25.1805 10.4028 24.986 10.3055 24.7916L5.63888 19.2499C5.34721 18.9582 5.15277 18.5693 5.15277 18.0832C5.15277 17.6943 5.34721 17.2082 5.63888 16.9166C6.31944 16.3332 7.29166 16.3332 7.97221 16.9166L10.7917 19.736V22.6527L12.6389 21.6805V7.68045C12.7361 6.9999 13.3194 6.41656 14.0972 6.51379C14.7778 6.51379 15.4583 6.9999 15.4583 7.68045V18.861L17.4028 19.2499V14.7777C17.5 14.6805 17.5972 14.6805 17.6944 14.5832C18.375 14.5832 19.0555 14.6805 19.7361 14.7777V19.736L21.2917 20.0277V14.9721L22.4583 15.2638C22.9444 15.361 23.4305 15.5555 23.9167 15.7499V20.611L25.4722 20.9027V16.4305C26.3472 16.8193 27.125 17.4027 27.8055 18.0832L27.9028 23.3332Z" fill="white"/>
</svg>
